HIERARCHY
ROOT Hips
{
	OFFSET 0.000000 0.000000 0.000000
	CHANNELS 6 Xposition Yposition Zposition Xrotation Yrotation Zrotation
	JOINT LeftUpLeg_virtual
	{
		OFFSET 0.000000 0.000000 0.000000
		CHANNELS 3 Xrotation Yrotation Zrotation
		JOINT LeftUpLeg
		{
			OFFSET 10.205400 -3.823500 0.155100
			CHANNELS 3 Xrotation Yrotation Zrotation
			JOINT LeftLeg
			{
				OFFSET 0.708757 -12.982077 0.567790
				CHANNELS 3 Xrotation Yrotation Zrotation
				JOINT LeftFoot
				{
					OFFSET -0.708756 -10.717838 -2.184338
					CHANNELS 3 Xrotation Yrotation Zrotation
					JOINT LeftToeBase
					{
						OFFSET 0.108149 -7.191104 7.560241
						CHANNELS 3 Xrotation Yrotation Zrotation
						JOINT LeftToe_End
						{
							OFFSET 0.070230 0.081724 4.490308
							CHANNELS 3 Xrotation Yrotation Zrotation
							End Site
							{
								OFFSET 0 0 0
							}
						}
					}
				}
			}
		}
	}
	JOINT RightUpLeg_virtual
	{
		OFFSET 0.000000 0.000000 0.000000
		CHANNELS 3 Xrotation Yrotation Zrotation
		JOINT RightUpLeg
		{
			OFFSET -10.205400 -3.823500 0.005500
			CHANNELS 3 Xrotation Yrotation Zrotation
			JOINT RightLeg
			{
				OFFSET -0.708756 -12.982134 0.610632
				CHANNELS 3 Xrotation Yrotation Zrotation
				JOINT RightFoot
				{
					OFFSET 0.708754 -10.717769 -1.945823
					CHANNELS 3 Xrotation Yrotation Zrotation
					JOINT RightToeBase
					{
						OFFSET -0.108140 -7.191069 7.372968
						CHANNELS 3 Xrotation Yrotation Zrotation
						JOINT RightToe_End
						{
							OFFSET -0.070227 0.081735 4.479403
							CHANNELS 3 Xrotation Yrotation Zrotation
							End Site
							{
								OFFSET 0 0 0
							}
						}
					}
				}
			}
		}
	}
	JOINT Spine_virtual
	{
		OFFSET 0.000000 0.000000 0.000000
		CHANNELS 3 Xrotation Yrotation Zrotation
		JOINT Spine
		{
			OFFSET 0.000000 6.876099 0.125700
			CHANNELS 3 Xrotation Yrotation Zrotation
			JOINT Spine1
			{
				OFFSET 0.000000 5.730043 0.104720
				CHANNELS 3 Xrotation Yrotation Zrotation
				JOINT Spine1_split
				{
					OFFSET 0.000000 5.730043 0.104720
					CHANNELS 3 Xrotation Yrotation Zrotation
					JOINT Spine2
					{
						OFFSET 0.000000 5.730043 0.104720
						CHANNELS 3 Xrotation Yrotation Zrotation
						JOINT Neck_virtual
						{
							OFFSET 0.000000 0.000000 0.000000
							CHANNELS 3 Xrotation Yrotation Zrotation
							JOINT Neck
							{
								OFFSET 0.000000 10.314075 0.188496
								CHANNELS 3 Xrotation Yrotation Zrotation
								JOINT Head
								{
									OFFSET 0.000000 7.643700 -2.377400
									CHANNELS 3 Xrotation Yrotation Zrotation
									JOINT HeadTop_End
									{
										OFFSET 0.000000 43.788605 -13.619600
										CHANNELS 3 Xrotation Yrotation Zrotation
										End Site
										{
											OFFSET 0 0 0
										}
									}
								}
							}
						}
						JOINT LeftShoulder_virtual
						{
							OFFSET 0.000000 0.000000 0.000000
							CHANNELS 3 Xrotation Yrotation Zrotation
							JOINT LeftShoulder
							{
								OFFSET 2.196100 4.412489 0.087492
								CHANNELS 3 Xrotation Yrotation Zrotation
								JOINT LeftShoulder_split
								{
									OFFSET 2.196100 4.412489 0.087492
									CHANNELS 3 Xrotation Yrotation Zrotation
									JOINT LeftArm
									{
										OFFSET 8.771219 -2.981674 -0.026999
										CHANNELS 3 Xrotation Yrotation Zrotation
										JOINT LeftForeArm
										{
											OFFSET 8.512804 0.000000 -0.000000
											CHANNELS 3 Xrotation Yrotation Zrotation
											JOINT LeftHand
											{
												OFFSET 18.484802 0.000000 -0.000000
												CHANNELS 3 Xrotation Yrotation Zrotation
												End Site
												{
													OFFSET 0 0 0
												}
											}
										}
									}
								}
							}
						}
						JOINT RightShoulder_virtual
						{
							OFFSET 0.000000 0.000000 0.000000
							CHANNELS 3 Xrotation Yrotation Zrotation
							JOINT RightShoulder
							{
								OFFSET -2.196100 4.412496 0.070690
								CHANNELS 3 Xrotation Yrotation Zrotation
								JOINT RightShoulder_split
								{
									OFFSET -2.196100 4.412496 0.070690
									CHANNELS 3 Xrotation Yrotation Zrotation
									JOINT RightArm
									{
										OFFSET -8.771282 -2.981682 -0.094208
										CHANNELS 3 Xrotation Yrotation Zrotation
										JOINT RightForeArm
										{
											OFFSET -8.494598 0.000000 0.000000
											CHANNELS 3 Xrotation Yrotation Zrotation
											JOINT RightHand
											{
												OFFSET -18.483803 0.000000 0.000001
												CHANNELS 3 Xrotation Yrotation Zrotation
												End Site
												{
													OFFSET 0 0 0
												}
											}
										}
									}
								}
							}
						}
					}
				}
			}
		}
	}
}
MOTION
Frames: 7
Frame Time: 0.03333333
-0.016602 34.149620 -0.515953 0.000000 0.000000 0.000000 0.871058 -30.174628 -0.533945 -17.151259 16.498032 14.776699 21.108809 8.692740 -3.104355 -8.030802 -3.996921 -2.686570 1.438579 0.244267 -1.620287 0.000000 0.000000 0.000000 1.133853 -29.522714 -0.241615 -1.297182 -3.374387 -3.992775 6.022935 7.207890 -1.163876 -17.003117 1.408804 6.967032 -5.122807 -0.874902 -1.638207 0.000000 0.000000 0.000000 1.183228 -27.430612 -1.207500 6.008053 -1.665897 0.007275 2.294493 -1.090293 2.698252 0.317455 -3.852952 0.322176 0.000000 0.000000 0.000000 2.519774 -0.367621 2.571133 -6.758384 18.224811 -8.020457 -1.941950 22.177723 4.061538 0.000000 0.000000 0.000000 2.484651 0.004528 2.794026 0.893748 -10.335600 -3.443066 0.249718 -3.843711 -1.828469 -60.826926 -0.142901 -34.632467 22.856064 -63.956375 24.005871 0.000000 0.000000 0.000000 2.217264 -0.544016 2.213063 3.812549 7.532257 7.737327 -1.107249 -3.841584 1.980261 -1.233525 -0.811863 61.334901 16.248340 14.757134 -7.661287 0.000000 0.000000 0.000000 
0.040212 34.050617 -0.491821 0.000000 0.000000 0.000000 0.651655 -29.321541 -0.610956 -18.003902 17.516112 14.720477 21.550546 8.414687 -2.894073 -8.508661 -4.449154 -3.350355 1.297206 0.163199 -1.343029 0.000000 0.000000 0.000000 1.168525 -28.528139 -0.237070 -0.889037 -2.936470 -4.200510 5.873423 6.629693 -1.462594 -17.706637 0.736638 8.261059 -5.792128 -1.001260 -1.908829 0.000000 0.000000 0.000000 0.935017 -25.772766 -0.854414 5.771655 -1.334432 0.001957 2.541355 -0.856487 2.619528 -0.928095 -1.327027 0.292926 0.000000 0.000000 0.000000 2.236354 -0.246790 2.366650 -6.628348 17.151700 -7.612837 -2.821783 21.568149 4.519890 0.000000 0.000000 0.000000 2.623316 0.207450 2.671065 0.457029 -9.038472 -3.922039 -0.906367 -1.989133 -2.530128 -59.866840 2.758866 -33.972743 23.935927 -64.265755 24.752551 0.000000 0.000000 0.000000 2.153981 -0.319648 2.078825 3.788607 7.817308 8.255462 -1.070981 -3.853806 1.207165 -0.280395 -0.565468 60.679243 16.695800 15.509667 -7.849585 0.000000 0.000000 0.000000 
0.039346 33.809315 -0.316397 0.000000 0.000000 0.000000 0.480412 -26.002486 -0.487786 -19.439840 17.172947 14.194620 22.838706 7.696049 -2.766930 -8.931808 -5.479440 -3.806642 0.990222 0.052958 -0.884167 0.000000 0.000000 0.000000 1.209815 -24.831038 -0.166751 0.719118 -3.444520 -4.410325 6.918818 4.492784 -1.804386 -20.762571 -1.318955 8.564146 -4.517167 -1.237703 -1.961009 0.000000 0.000000 0.000000 0.933352 -22.205657 -0.373380 5.292876 -0.598174 0.165835 2.881464 -0.266264 2.456028 -1.643332 0.409941 0.228080 0.000000 0.000000 0.000000 2.132363 0.206848 2.133715 -7.166474 14.621272 -6.970190 -3.514326 18.778912 4.340401 0.000000 0.000000 0.000000 2.779156 0.668844 2.396840 -0.091751 -7.042859 -4.616269 -1.518368 -0.975815 -2.292897 -61.145247 7.930278 -32.449986 25.249898 -67.109826 25.456947 0.000000 0.000000 0.000000 2.105746 0.235290 1.894383 3.826514 8.458589 9.083658 -1.118670 -3.564866 0.420618 1.206656 -1.653597 60.265648 17.809452 17.317987 -8.591487 0.000000 0.000000 0.000000 
0.016061 33.525761 0.007706 0.000000 0.000000 0.000000 0.414816 -20.534352 -0.204444 -21.052363 15.413959 13.105858 24.321286 6.714558 -2.668182 -8.666798 -6.918269 -3.964370 0.535272 -0.052873 -0.366400 0.000000 0.000000 0.000000 1.259553 -19.012518 0.002766 3.072909 -4.866092 -4.751015 8.624528 1.294096 -1.964905 -24.875264 -4.140571 8.225788 -2.389929 -1.388927 -1.796188 0.000000 0.000000 0.000000 1.190491 -17.160388 0.084221 4.535484 0.524138 0.419841 3.266203 0.657877 2.146846 -1.339945 1.097200 0.146172 0.000000 0.000000 0.000000 2.219328 1.006733 1.818963 -8.232717 10.752039 -5.971290 -3.947491 14.048249 3.516751 0.000000 0.000000 0.000000 2.953390 1.419331 2.003022 -0.673807 -4.601410 -5.294915 -1.059122 -1.418310 -0.823489 -64.314455 13.393666 -30.266542 26.701583 -71.744840 26.011580 0.000000 0.000000 0.000000 2.118399 1.110037 1.599497 3.876165 9.278006 10.204940 -1.324128 -3.203580 -0.170678 2.825061 -3.764045 60.146209 19.359005 19.486482 -9.728638 0.000000 0.000000 0.000000 
-0.004247 33.307293 0.416115 0.000000 0.000000 0.000000 0.391745 -13.674954 0.115087 -22.430806 12.129336 11.486923 25.357398 5.784892 -2.522164 -7.368664 -8.482618 -3.599631 0.122349 -0.143136 0.079095 0.000000 0.000000 0.000000 1.324480 -11.850907 0.250584 5.889659 -6.818263 -5.304547 10.730689 -1.944481 -1.600368 -28.349103 -6.811249 8.119245 -1.359415 -1.358237 -1.334921 0.000000 0.000000 0.000000 1.555208 -11.148722 0.416117 3.456365 1.989300 0.696587 3.599036 1.876919 1.672124 -0.260821 1.163285 0.372126 0.000000 0.000000 0.000000 2.509860 2.132507 1.399801 -9.628373 5.648113 -4.377956 -4.046552 7.902010 2.089144 0.000000 0.000000 0.000000 3.117460 2.473268 1.519956 -1.190915 -1.952121 -5.890154 -0.066072 -2.529704 1.107156 -68.389024 17.930286 -27.781572 27.115725 -77.064355 25.360774 0.000000 0.000000 0.000000 2.223705 2.268613 1.187237 3.854345 10.086262 11.560433 -1.988785 -2.813661 -0.393090 4.329682 -6.229369 60.120309 21.042901 21.264307 -11.095203 0.000000 0.000000 0.000000 
-0.024835 33.202068 0.856766 0.000000 0.000000 0.000000 0.467966 -6.263385 0.353862 -23.221936 7.561142 9.558291 25.302258 5.112436 -2.293994 -5.400042 -9.882981 -2.487175 0.170681 -0.198222 0.365392 0.000000 0.000000 0.000000 1.274638 -4.487544 0.454007 8.807249 -8.835607 -6.029407 12.997759 -4.521710 -0.717151 -29.616602 -8.771381 8.992193 -2.988724 -1.148604 -0.638550 0.000000 0.000000 0.000000 1.821494 -4.735486 0.522959 2.066506 3.709092 0.995983 3.813987 3.310153 1.086998 0.893342 1.268522 0.494527 0.000000 0.000000 0.000000 2.942654 3.508161 0.888436 -11.005992 -0.497318 -2.044665 -3.693365 0.880586 0.156590 0.000000 0.000000 0.000000 3.242910 3.798527 1.003503 -1.572701 0.641751 -6.313190 1.218709 -3.939725 2.964830 -72.080742 20.754537 -25.507297 23.791210 -82.195480 20.976189 0.000000 0.000000 0.000000 2.422953 3.632756 0.672603 3.680782 10.704570 13.071965 -3.117461 -2.245967 -0.564890 5.726519 -8.353287 59.816591 22.634192 22.369952 -12.535533 0.000000 0.000000 0.000000 
0.000427 33.214401 1.364452 0.000000 0.000000 0.000000 0.520446 1.372031 0.351839 -23.235986 2.192584 7.552172 24.039633 4.541980 -2.080351 -3.324690 -11.127893 -0.939425 0.641041 -0.223000 0.467477 0.000000 0.000000 0.000000 1.042504 2.580036 0.493030 11.681192 -10.417529 -6.666017 15.300324 -6.356279 0.454559 -27.951687 -9.970280 11.063376 -7.584627 -1.021288 0.230098 0.000000 0.000000 0.000000 1.811885 2.089253 0.473902 0.439060 5.520065 1.366986 3.879951 4.857703 0.493926 1.614882 1.199982 0.504821 0.000000 0.000000 0.000000 3.389081 4.996675 0.319771 -12.083134 -7.324048 0.954231 -3.025374 -6.546005 -2.089163 0.000000 0.000000 0.000000 3.322915 5.300990 0.523292 -1.776989 2.942763 -6.445843 2.620159 -5.506908 4.425789 -74.537820 22.142700 -23.743411 6.318827 -85.851072 2.625799 0.000000 0.000000 0.000000 2.742215 5.112252 0.109574 3.373603 11.004054 14.432331 -4.471802 -1.608754 -0.804410 7.210583 -9.461272 58.944929 24.137077 22.746500 -14.053371 0.000000 0.000000 0.000000 
